<svg width="327" height="69" viewBox="0 0 327 69" fill="none" xmlns="http://www.w3.org/2000/svg">
<path d="M29.4531 23.8948H34.5296L38.4566 35.95H38.5285V23.8948H42.1443V44.0268H37.9777L33.1168 29.3352H33.045V44.0268H29.4531V23.8948Z" fill="white"/>
<path d="M53.0155 42.9962C51.9619 42.1094 51.4351 40.8632 51.4351 39.2574V28.6641C51.4351 27.0584 51.9619 25.8121 53.0155 24.9253C54.0691 24.0386 55.6016 23.6072 57.5651 23.6072C59.5526 23.6072 61.0612 24.0386 62.1148 24.9253C63.1684 25.8121 63.6952 27.0584 63.6952 28.6641V39.2574C63.6952 40.8632 63.1684 42.1094 62.1148 42.9962C61.0612 43.883 59.5286 44.3144 57.5651 44.3144C55.6016 44.3144 54.0691 43.883 53.0155 42.9962ZM59.6723 39.4491V28.4724C59.6723 27.1542 58.9779 26.4832 57.5651 26.4832C56.1763 26.4832 55.4579 27.1542 55.4579 28.4724V39.4491C55.4579 40.7673 56.1523 41.4384 57.5651 41.4384C58.9779 41.4384 59.6723 40.7673 59.6723 39.4491Z" fill="white"/>
<path d="M73.0337 23.8948H84.0726V26.7708H77.0805V32.0914H82.6358V34.9674H77.0805V41.1508H84.0726V44.0268H73.0337V23.8948Z" fill="white"/>
<path d="M92.9565 23.8948H98.7274L101.314 38.2987H101.385L103.971 23.8948H109.742V44.0268H105.911V28.784H105.839L102.894 44.0268H99.5176L96.5723 28.784H96.5005V44.0268H92.9805V23.8948H92.9565Z" fill="white"/>
<path d="M121.715 19.2213H126.121L122.194 22.5287H119.153L121.715 19.2213ZM119.32 23.8948H123.367V44.0268H119.32V23.8948Z" fill="white"/>
<path d="M144.368 23.8948H148.462L151.12 39.521H151.192L153.85 23.8948H157.562L153.659 44.0268H148.295L144.368 23.8948Z" fill="white"/>
<path d="M166.086 23.8948H170.133V44.0268H166.086V23.8948Z" fill="white"/>
<path d="M179.735 23.8948H183.782V41.1508H190.439V44.0268H179.735V23.8948Z" fill="white"/>
<path d="M198.963 23.8948H203.01V41.1508H209.667V44.0268H198.963V23.8948Z" fill="white"/>
<path d="M218.192 23.8948H229.231V26.7708H222.239V32.0914H227.794V34.9674H222.239V41.1508H229.231V44.0268H218.192V23.8948Z" fill="white"/>
<path d="M239.384 42.9963C238.354 42.1335 237.827 40.8633 237.827 39.2335V28.6403C237.827 27.0105 238.33 25.7643 239.384 24.8775C240.413 24.0147 241.898 23.5593 243.861 23.5593C245.825 23.5593 247.31 23.9907 248.339 24.8775C249.369 25.7403 249.896 27.0105 249.896 28.6403V30.3659H246.064V28.4485C246.064 27.1304 245.37 26.4593 243.957 26.4593C242.568 26.4593 241.85 27.1304 241.85 28.4485V39.4732C241.85 40.7674 242.544 41.4385 243.957 41.4385C245.346 41.4385 246.064 40.7913 246.064 39.4732V35.5427H244.053V32.6667H249.896V39.2575C249.896 40.8872 249.393 42.1335 248.339 43.0202C247.31 43.883 245.825 44.3384 243.861 44.3384C241.898 44.3144 240.413 43.883 239.384 42.9963Z" fill="white"/>
<path d="M262.228 23.8948H267.711L271.902 44.0268H267.855L267.113 40.0243V40.0723H262.515L261.773 44.0028H258.013L262.228 23.8948ZM266.634 37.3401L264.838 27.3939H264.766L262.994 37.3401H266.634Z" fill="white"/>
<path d="M281.12 42.9963C280.115 42.1335 279.612 40.8633 279.612 39.2335V38.1071H283.443V39.4972C283.443 40.7914 284.138 41.4624 285.55 41.4624C286.245 41.4624 286.748 41.2947 287.107 40.9831C287.466 40.6715 287.634 40.1442 287.634 39.4492C287.634 38.6104 287.394 37.8674 286.891 37.2203C286.388 36.5732 285.502 35.8063 284.161 34.8956C282.485 33.7452 281.336 32.7146 280.665 31.7799C279.995 30.8452 279.66 29.7907 279.66 28.6403C279.66 27.0585 280.187 25.8122 281.216 24.9494C282.246 24.0866 283.73 23.6312 285.694 23.6312C287.634 23.6312 289.094 24.0626 290.1 24.9494C291.082 25.8122 291.585 27.0824 291.585 28.7122V29.551H287.753V28.5204C287.753 27.8254 287.586 27.3221 287.25 27.0105C286.915 26.699 286.412 26.5312 285.742 26.5312C284.401 26.5312 283.73 27.1783 283.73 28.4485C283.73 29.1675 283.97 29.8626 284.473 30.4857C284.976 31.1088 285.886 31.8758 287.203 32.7865C288.903 33.9369 290.052 34.9914 290.699 35.9261C291.345 36.8608 291.656 37.9633 291.656 39.2335C291.656 40.8872 291.13 42.1575 290.1 43.0203C289.046 43.907 287.538 44.3384 285.55 44.3384C283.611 44.3145 282.126 43.8831 281.12 42.9963Z" fill="white"/>
<path d="M327 69H0V0H327V69ZM4.7891 64.2067H322.211V4.79333H4.7891V64.2067Z" fill="white"/>
</svg>
